<?xml version="1.0" encoding="UTF-8"?> <svg xmlns="http://www.w3.org/2000/svg" xmlns:xlink="http://www.w3.org/1999/xlink" width="100px" height="100px" viewBox="0 0 100 100"><!-- Generator: Sketch 54.1 (76490) - https://sketchapp.com --><title>ensue-logo-reverse</title><desc>Created with Sketch.</desc><g id="Page-1" stroke="none" stroke-width="1" fill="none" fill-rule="evenodd"><g id="ensue-logo-reverse" fill="#025EA5" fill-rule="nonzero"><rect id="Rectangle-1" x="0" y="0" width="100" height="28.5714286"></rect><rect id="Rectangle-1-Copy" x="0" y="71.4285714" width="100" height="28.5714286"></rect><polygon id="Fill-1-Copy" points="62.8571429 41.4285714 62.8571429 57.8571429 79.2857143 57.8571429 79.2857143 41.4285714 75.1785714 41.4285714 75.1785714 53.75 66.9642857 53.75 66.9642857 41.4285714"></polygon><polygon id="Fill-1-Copy-2" points="83.5714286 45.5357143 95.8928571 45.5357143 95.8928571 47.5892857 83.5714286 47.5892857 83.5714286 51.6964286 95.8928571 51.6964286 95.8928571 53.75 83.5714286 53.75 83.5714286 57.8571429 100 57.8571429 100 41.4285714 83.5714286 41.4285714"></polygon><polygon id="Fill-1-Copy-3" points="41.4285714 53.75 41.4285714 57.8571429 57.8571429 57.8571429 57.8571429 47.5892857 45.5357143 47.5892857 45.5357143 45.5357143 57.8571429 45.5357143 57.8571429 41.4285714 41.4285714 41.4285714 41.4285714 51.6964286 53.75 51.6964286 53.75 53.75"></polygon><polygon id="Fill-1-Copy-4" points="16.4285714 53.75 4.10714286 53.75 4.10714286 51.6964286 16.4285714 51.6964286 16.4285714 47.5892857 4.10714286 47.5892857 4.10714286 45.5357143 16.4285714 45.5357143 16.4285714 41.4285714 0 41.4285714 0 57.8571429 16.4285714 57.8571429"></polygon><polygon id="Fill-1-Copy-5" points="37.1428571 57.8571429 37.1428571 41.4285714 20.7142857 41.4285714 20.7142857 57.8571429 24.8214286 57.8571429 24.8214286 45.5357143 33.0357143 45.5357143 33.0357143 57.8571429"></polygon></g></g></svg> 